# xmcd CD database file generated by OrangeCD 6.3
#
# Track frame offsets:
#	182
#	15560
#	29585
#	44022
#	58795
#	72147
#	85100
#	98185
#	110997
#	123460
#	135792
#	148347
#	159520
#	172130
#	183817
#	196135
#	209755
#	223027
#	236325
#	249110
#
# Disc length: 3487 seconds
#
# Revision: 3
# Processed by: cddbd v1.5.2PL0 Copyright (c) Steve Scherf et al.
# Submitted via: OrangeCD 6.3
#
DISCID=250d9d14
DTITLE=Blind Boy Fuller - Heart Ease Blues
DYEAR=1995
DGENRE=East Coast Blues
TTITLE0=Baby You Gotta Change Your Mind
TTITLE1=Baby I Don't Have To Worry
TTITLE2=Looking For My Woman
TTITLE3=Somebody's Been Playing With That Thing
TTITLE4=Mama Let Me Lay It On You
TTITLE5=Boots And Shoes
TTITLE6=Truckin' My Blues Away No. 2
TTITLE7=My Best Gal Gonna Leave Me
TTITLE8=Too Many Women Blues
TTITLE9=Oozin' You Off My Mind
TTITLE10=Shake That Shimmy
TTITLE11=Heart Ease Blues
TTITLE12=Georgia Ham Mama
TTITLE13=Jivin' Woman Blues
TTITLE14=You Got To Have Your Dollar
TTITLE15=Bye, Bye Baby
TTITLE16=No Stranger Now
TTITLE17=Must Have Been My Jesus
TTITLE18=Jesus Is A Holy Man
TTITLE19=Precious Lord
EXTD=
EXTT0=
EXTT1=
EXTT2=
EXTT3=
EXTT4=
EXTT5=
EXTT6=
EXTT7=
EXTT8=
EXTT9=
EXTT10=
EXTT11=
EXTT12=
EXTT13=
EXTT14=
EXTT15=
EXTT16=
EXTT17=
EXTT18=
EXTT19=
PLAYORDER=
